<svg xmlns="http://www.w3.org/2000/svg" width="512" height="512" enable-background="new 0 0 512 512" viewBox="0 0 512 512" id="pillar"><path d="M381.232,499.766H131.469c-4.314,0-7.825-3.511-7.825-7.825v-41.293c0-4.315,3.51-7.826,7.825-7.826h249.764
				c4.315,0,7.827,3.511,7.827,7.826v41.293C389.06,496.255,385.548,499.766,381.232,499.766z M131.644,491.766H381.06v-40.944
				H131.644V491.766z"></path><path d="M363.608,450.821H149.094c-1.644,0-3.121-1.006-3.723-2.536c-0.37-0.941-0.413-1.775-0.413-2.32v-34.439
				c0-3.959,3.234-7.18,7.209-7.18h208.365c3.976,0,7.21,3.221,7.21,7.18v34.439c0,0.679-0.101,1.34-0.308,2.021
				C366.923,449.67,365.369,450.821,363.608,450.821z M359.781,445.656l3.827,1.165L359.781,445.656L359.781,445.656
				L359.781,445.656z M152.959,442.821h206.784v-30.476H152.959V442.821z"></path><path fill="none" stroke="#000" stroke-linecap="round" stroke-linejoin="round" stroke-miterlimit="10" stroke-width="8" d="
			M347.761,217.111v44.462 M347.761,261.573v146.772H164.912V107.537c0-1.079,0.135-2.158,0.352-3.18h182.151
			c0.241,1.021,0.346,2.101,0.346,3.18v109.574"></path><path d="M381.232,69.869H131.469c-4.314,0-7.825-3.511-7.825-7.826V20.762c0-4.314,3.51-7.824,7.825-7.824h249.764
				c4.315,0,7.827,3.51,7.827,7.824v41.281C389.06,66.358,385.548,69.869,381.232,69.869z M131.644,61.869H381.06V20.938H131.644
				V61.869z"></path><path d="M360.533,108.357H152.168c-3.975,0-7.209-3.221-7.209-7.18v-34.44c0-0.851,0.139-1.636,0.413-2.332
				c0.602-1.53,2.079-2.536,3.723-2.536h214.514c1.761,0,3.314,1.151,3.827,2.835c0.198,0.653,0.308,1.375,0.308,2.033v34.44
				C367.743,105.137,364.509,108.357,360.533,108.357z M152.959,100.357h206.784V69.869H152.959V100.357z"></path><path d="M220.403 412.346h-28.461c-3.678 0-6.669-2.984-6.669-6.652V106.997c0-3.661 2.992-6.64 6.669-6.64h28.461c3.662 0 6.641 2.979 6.641 6.64v298.696C227.043 409.361 224.064 412.346 220.403 412.346zM193.272 404.346h25.771V108.357h-25.771V404.346zM287.453 412.346h-28.462c-3.678 0-6.669-2.984-6.669-6.652V106.997c0-3.661 2.992-6.64 6.669-6.64h28.462c3.661 0 6.641 2.979 6.641 6.64v298.696C294.094 409.361 291.114 412.346 287.453 412.346zM260.322 404.346h25.771V108.357h-25.771V404.346zM323.401 409.963c-2.209 0-4-1.791-4-4V106.728c0-2.209 1.791-4 4-4s4 1.791 4 4v299.235C327.401 408.172 325.61 409.963 323.401 409.963z"></path></svg>